<svg xmlns="http://www.w3.org/2000/svg" viewBox="0 0 115.9 86.1"><path d="M44.4 50.1h8.7v20.4h-8.7zm35.8-9h8.7v29.4h-8.7z" fill="none"/><path d="M31.1 7.4v68.3m12.7-68V76M56.6 8v68.3m12.7-68v68.3M82 8.6V77m11-59.1H21.4M92.7 30H21.1m71.3 12.2H20.8M92 54.3H20.4m71.3 12.1H20.1" fill="none" stroke="#07dce0" stroke-miterlimit="10"/><path d="M96 78.9H18.8v-73H96v73zm-74.2-3H93V8.8H21.8v67.1z"/><path fill="#fff" d="M103.2 10.2l-36.3 34-24.1-10L2 71.9l8.8 9.6 34.7-32 24.1 10 42.5-39.7z"/><path fill="#002d78" d="M11.1 75.8l-3.4-3.7 36-33.2 24 10 35.3-33 3.5 3.7-37.7 35.2-24.1-10z"/></svg>