<svg id="Camada_1" xmlns="http://www.w3.org/2000/svg" xmlns:xlink="http://www.w3.org/1999/xlink" viewBox="0 0 116.1 113.9"><style>.st2{fill:#fff}.st3{fill:#002d78}</style><defs><ellipse id="SVGID_1_" cx="58.1" cy="56.9" rx="53.5" ry="54.4"/></defs><clipPath id="SVGID_2_"><use xlink:href="#SVGID_1_" overflow="visible"/></clipPath><g clip-path="url(#SVGID_2_)"><path d="M115.2 102.9c7-10.9 11-23.9 11-37.9 0-38.6-30.7-69.8-68.6-69.8C19.7-4.8-11 26.5-11 65c0 14 4.1 27 11 37.9h115.2z" fill="#81ecf2"/><path class="st2" d="M-13.6 109.6l-1.3 6.3h130l-11.6-62.8H23.3S10.3 52 5.4 68.5c-4.9 16.4-19 41.1-19 41.1z"/><path class="st2" d="M70.7 70.2c0 .7-.5 1.2-1.2 1.2H43.8c-.6 0-1.2-.5-1.2-1.2V12.7c0-.6.5-1.2 1.2-1.2h25.7c.6 0 1.2.5 1.2 1.2v57.5z"/><path d="M-15 118.2l-3.9-1.8 23-51.7C4.3 64.2 9.7 51 23.4 51h81.9l11.9 65.2-4.2.8-11.2-61.7H23.3C12.5 55.3 8 66.2 8 66.3l-23 51.9z"/><path class="st3" d="M11.6 113.1h85.8v2.9H11.6z"/><path d="M56.7 44.9c-5.9 0-13.7-1.1-14.7-10.4h-.1l-.1-.7V15.9h1.4l.1 17.9c.4 6.7 4.6 9.7 13.3 9.7 8.8 0 12.9-3 13.3-9.7V19.4h1.4v15.1h-.1c-.8 9.3-8.7 10.4-14.5 10.4z"/><path class="st3" d="M64.8 6.3h-17c-3.9 0-5.9.3-5.9 5.3v6.8l7.7-6.6s-1.5 4.5 3.9 5.5l18.7 5v-9.2c0 .1-.5-6.8-7.4-6.8z"/><path d="M41.8 29.7h1.4V53h-1.4zm28.3.1h1.4V53h-1.4zm-7.3 3c-2.9 0-5.2-2.4-5.2-5.3s2.3-5.3 5.2-5.3c2.9 0 5.2 2.4 5.2 5.3.1 2.9-2.3 5.3-5.2 5.3zm0-9.2c-2.1 0-3.8 1.7-3.8 3.9 0 2.1 1.7 3.9 3.8 3.9 2.1 0 3.8-1.7 3.8-3.9s-1.7-3.9-3.8-3.9zm-12.7 9.2c-2.9 0-5.2-2.4-5.2-5.3s2.3-5.3 5.2-5.3c2.9 0 5.2 2.4 5.2 5.3s-2.3 5.3-5.2 5.3zm0-9.2c-2.1 0-3.8 1.7-3.8 3.9 0 2.1 1.7 3.9 3.8 3.9 2.1 0 3.8-1.7 3.8-3.9s-1.7-3.9-3.8-3.9z"/><defs><path id="SVGID_3_" d="M60 94.9h-6.9L41.5 55.8h30.1z"/></defs><clipPath id="SVGID_4_"><use xlink:href="#SVGID_3_" overflow="visible"/></clipPath><path clip-path="url(#SVGID_4_)" fill="#06d8e6" d="M41.5 54.7h1.3v40.2h-1.3z"/><path clip-path="url(#SVGID_4_)" fill="#06d9e5" d="M42.8 54.7H44v40.2h-1.2z"/><path clip-path="url(#SVGID_4_)" fill="#06d9e4" d="M44 54.7h1.3v40.2H44z"/><path clip-path="url(#SVGID_4_)" fill="#07dae3" d="M45.3 54.7h1.3v40.2h-1.3z"/><path clip-path="url(#SVGID_4_)" fill="#07dbe2" d="M46.5 54.7h1.2v40.2h-1.2z"/><path clip-path="url(#SVGID_4_)" fill="#07dbe1" d="M47.8 54.7h1.3v40.2h-1.3z"/><path clip-path="url(#SVGID_4_)" fill="#07dce0" d="M49 54.7h1.3v40.2H49z"/><path clip-path="url(#SVGID_4_)" fill="#08dddf" d="M50.3 54.7h1.2v40.2h-1.2z"/><path clip-path="url(#SVGID_4_)" fill="#08ddde" d="M51.5 54.7h1.3v40.2h-1.3z"/><path clip-path="url(#SVGID_4_)" fill="#08dedd" d="M52.8 54.7H54v40.2h-1.2z"/><path clip-path="url(#SVGID_4_)" fill="#08dfdc" d="M54 54.7h1.3v40.2H54z"/><path clip-path="url(#SVGID_4_)" fill="#08dfdb" d="M55.3 54.7h1.3v40.2h-1.3z"/><path clip-path="url(#SVGID_4_)" fill="#09e0d9" d="M56.6 54.7h1.2v40.2h-1.2z"/><path clip-path="url(#SVGID_4_)" fill="#09e0d8" d="M57.8 54.7h1.3v40.2h-1.3z"/><path clip-path="url(#SVGID_4_)" fill="#09e1d7" d="M59.1 54.7h1.2v40.2h-1.2z"/><path clip-path="url(#SVGID_4_)" fill="#09e2d6" d="M60.3 54.7h1.3v40.2h-1.3z"/><path clip-path="url(#SVGID_4_)" fill="#09e2d5" d="M61.6 54.7h1.3v40.2h-1.3z"/><path clip-path="url(#SVGID_4_)" fill="#0ae3d4" d="M62.8 54.7H64v40.2h-1.2z"/><path clip-path="url(#SVGID_4_)" fill="#0ae4d3" d="M64.1 54.7h1.3v40.2h-1.3z"/><path clip-path="url(#SVGID_4_)" fill="#0ae4d2" d="M65.3 54.7h1.3v40.2h-1.3z"/><path clip-path="url(#SVGID_4_)" fill="#0ae5d1" d="M66.6 54.7h1.2v40.2h-1.2z"/><path clip-path="url(#SVGID_4_)" fill="#0be6d0" d="M67.8 54.7h1.3v40.2h-1.3z"/><path clip-path="url(#SVGID_4_)" fill="#0be6cf" d="M69.1 54.7h1.3v40.2h-1.3z"/><path clip-path="url(#SVGID_4_)" fill="#0be7ce" d="M70.3 54.7h1.2v40.2h-1.2z"/><path d="M54.4 26.2h3.8v1.5h-3.8zm-11.7 0h2.7v1.5h-2.7zm25 .1h3.6v1.5h-3.6zM7.2 93h11.3v1.5H7.2zm45.9-33.2l2.7 6.2-2.1 19.3 4.6 14.4 3.5-16.8L57.5 66l2.6-5.8-1.8-5.3h-3.6zm-5.5 30L32.8 73.3l3.8-4.6h-9.9l11.5-16 1.1.8-9.7 13.8h10.1l-5 6 14 15.5zm18.1 0l-1.1-1 14-15.5-5-6h10.1L74 53.5l1.1-.8 11.4 16h-9.8l3.8 4.6z"/><path class="st3" d="M17.8 76.7h73.9v39.1H17.8z"/><path d="M58.2 54.5l-.9-1.1s3.9-3.3 5.8-10.2l1.4.4c-2.1 7.3-6.2 10.8-6.3 10.9z"/><ellipse class="st2" cx="54.1" cy="98.5" rx="3.5" ry="3.5"/></g></svg>