<svg id="Camada_1" xmlns="http://www.w3.org/2000/svg" xmlns:xlink="http://www.w3.org/1999/xlink" viewBox="0 0 116.1 113.9"><style>.st2{fill:#fff}.st8{fill:#c5d6d5}</style><defs><circle id="SVGID_1_" cx="58.1" cy="56.9" r="54.4"/></defs><clipPath id="SVGID_2_"><use xlink:href="#SVGID_1_" overflow="visible"/></clipPath><g clip-path="url(#SVGID_2_)"><circle cx="55.1" cy="54.9" r="63.1" fill="#002d78"/><path class="st2" d="M16.2 124.2l34.9-47.9h14.2L99 123.6z"/><path d="M78.3 58.1H117c-.5-.9-5.4 48.2-5.7 48.1H74l-3.1-6.1 4.4-10.7-12.2-.4-6.2-10.9-17.1 28.1H6.1C5.4 106-2 58-1.5 58.1H31" fill="#fff" stroke="#000" stroke-width="3" stroke-linejoin="round" stroke-miterlimit="10"/><path d="M77.8 31.4C77.8 18.5 67.4 8 54.5 8c-13 0-23.4 10.5-23.4 23.4 0 1 .2 33.3.2 33.3l25.4 7.4 21-7.4s.1-32.3.1-33.3z" fill="#fff" stroke="#00bdff" stroke-width="3" stroke-miterlimit="10"/><linearGradient id="SVGID_3_" gradientUnits="userSpaceOnUse" x1="44.583" y1="23.091" x2="57.952" y2="52.153"><stop offset="0" stop-color="#0899db"/><stop offset=".995" stop-color="#0be7ce" stop-opacity="0"/></linearGradient><path d="M72.7 32.5c0-10.6-7.6-18.3-18.3-18.3-10.6 0-18.3 7.6-18.3 18.3 0 .8.1 28.8.1 28.8l20.1 5.9 16.1-5.9c.1-.1.3-28 .3-28.8z" fill="url(#SVGID_3_)"/><path d="M76.4 34.4L54.8 56 33.2 34.4z"/><path d="M71.4 36.1l-6.9 7-7-7zm-19.1 0l-6.9 7-7-7z" fill="#07dce0"/><path d="M64.1 101.1l4.3-7.1H60zm-2-3.4l-5.5-9.5-5.5 9.5-5.5 9.5h21.8l-5.3-9.5zm-6.3 3.5L60 94l4.1 7.2h-8.3z" fill="#00bdff"/><path class="st8" d="M15.7 96.5c6.5-.2 25.7 0 25.7 0l-4.3 7.1H17.8s-2.5-7.1-2.1-7.1zm86.2 0c-.1.2-25.8 0-25.8 0l-1.2 3.6 1.9 3.5h22.9c.1 0 2.4-7.6 2.2-7.1z"/><path class="st2" d="M48.3 17.4s-9 5.2-9.4 14.4v32.3l3.9.7s-.1-30.3-.1-31.1c-.3-2.3 1-10.1 5.6-16.3z"/><path class="st8" d="M28.9 80.4h-14c-.6 0-1.1-.5-1.1-1.1V79c0-.6.5-1.1 1.1-1.1h14c.6 0 1.1.5 1.1 1.1v.3c0 .6-.5 1.1-1.1 1.1zm0 5.1h-14c-.6 0-1.1-.5-1.1-1.1v-.3c0-.6.5-1.1 1.1-1.1h14c.6 0 1.1.5 1.1 1.1v.3c0 .6-.5 1.1-1.1 1.1zm0 5h-14c-.6 0-1.1-.5-1.1-1.1v-.3c0-.6.5-1.1 1.1-1.1h14c.6 0 1.1.5 1.1 1.1v.3c0 .6-.5 1.1-1.1 1.1z"/></g></svg>